<svg width="38" height="37" viewBox="0 0 38 37" fill="none" xmlns="http://www.w3.org/2000/svg">
<path d="M2.36475 10.5199L17.8172 19.4624L33.1647 10.5723" stroke="#FBFBFB" stroke-width="1.5" stroke-linecap="round" stroke-linejoin="round"/>
<path d="M17.8174 35.3175V19.4449" stroke="#FBFBFB" stroke-width="1.5" stroke-linecap="round" stroke-linejoin="round"/>
<path d="M34.6349 19.9526V13.5475C34.6349 11.1325 32.9025 8.19254 30.785 7.02004L21.44 1.84C19.445 0.72 16.19 0.72 14.195 1.84L4.84997 7.02004C2.73247 8.19254 1 11.1325 1 13.5475V23.4526C1 25.8676 2.73247 28.8075 4.84997 29.98L14.195 35.1601C15.1925 35.7201 16.505 36 17.8175 36C19.13 36 20.4425 35.7201 21.44 35.1601" stroke="#FBFBFB" stroke-width="1.5" stroke-linecap="round" stroke-linejoin="round"/>
<path d="M30.4174 34.95C33.5102 34.95 36.0174 32.4428 36.0174 29.35C36.0174 26.2572 33.5102 23.75 30.4174 23.75C27.3246 23.75 24.8174 26.2572 24.8174 29.35C24.8174 32.4428 27.3246 34.95 30.4174 34.95Z" stroke="#FBFBFB" stroke-width="1.5" stroke-linecap="round" stroke-linejoin="round"/>
<path d="M37.0674 36L35.3174 34.25" stroke="#FBFBFB" stroke-width="1.5" stroke-linecap="round" stroke-linejoin="round"/>
</svg>
