<svg width="38" height="37" viewBox="0 0 38 37" fill="none" xmlns="http://www.w3.org/2000/svg">
<path d="M2.36475 10.5199L17.8172 19.4624L33.1647 10.5723" stroke="white" stroke-width="1.5" stroke-linecap="round" stroke-linejoin="round"/>
<path d="M17.8174 35.3175V19.4449" stroke="white" stroke-width="1.5" stroke-linecap="round" stroke-linejoin="round"/>
<path d="M34.6349 13.5475V23.4526C34.6349 23.5401 34.635 23.61 34.6175 23.6975C33.3925 22.63 31.8175 22 30.0675 22C28.4225 22 26.9 22.5775 25.6925 23.54C24.0825 24.8175 23.0675 26.795 23.0675 29C23.0675 30.3125 23.435 31.555 24.0825 32.605C24.24 32.885 24.4325 33.1476 24.6425 33.3926L21.44 35.1601C19.445 36.2801 16.19 36.2801 14.195 35.1601L4.84997 29.98C2.73247 28.8075 1 25.8676 1 23.4526V13.5475C1 11.1325 2.73247 8.19254 4.84997 7.02004L14.195 1.84C16.19 0.72 19.445 0.72 21.44 1.84L30.785 7.02004C32.9025 8.19254 34.6349 11.1325 34.6349 13.5475Z" stroke="white" stroke-width="1.5" stroke-linecap="round" stroke-linejoin="round"/>
<path d="M37.0674 29C37.0674 30.3125 36.6999 31.555 36.0524 32.605C35.6849 33.235 35.2124 33.795 34.6699 34.25C33.4449 35.3525 31.8349 36 30.0674 36C27.5124 36 25.2899 34.635 24.0824 32.605C23.4349 31.555 23.0674 30.3125 23.0674 29C23.0674 26.795 24.0824 24.8175 25.6924 23.54C26.8999 22.5775 28.4224 22 30.0674 22C33.9349 22 37.0674 25.1325 37.0674 29Z" stroke="white" stroke-width="1.5" stroke-miterlimit="10" stroke-linecap="round" stroke-linejoin="round"/>
<path d="M31.94 30.8198L28.23 27.1273" stroke="white" stroke-width="1.5" stroke-miterlimit="10" stroke-linecap="round" stroke-linejoin="round"/>
<path d="M31.9048 27.1799L28.1948 30.8724" stroke="white" stroke-width="1.5" stroke-miterlimit="10" stroke-linecap="round" stroke-linejoin="round"/>
</svg>
