<svg width="23" height="11" viewBox="0 0 23 11" fill="none" xmlns="http://www.w3.org/2000/svg">
<path d="M12.1764 2.8221C9.94701 2.8221 7.71763 2.77707 5.49216 2.8414C4.49177 2.86927 4.3042 2.3675 4.3042 1.42186C4.3042 0.4805 4.48591 -0.0105497 5.48825 0.000171883C10.4628 0.0430583 15.4374 0.00446053 20.4101 0.0301924C21.9771 0.0387697 22.6531 0.819302 22.6648 2.52833C22.6805 4.66621 22.6238 6.8041 22.6844 8.93985C22.7176 10.1021 22.1451 10.1707 21.3382 10.1814C20.5312 10.19 20.0564 10.0077 20.0955 8.96129C20.1521 7.48171 20.0349 5.98926 20.1287 4.51397C20.2108 3.22094 19.8747 2.72775 18.6183 2.79422C16.4749 2.90573 14.3218 2.82424 12.1725 2.82424L12.1764 2.8221Z" fill="white"/>
<path d="M9.79652 10.1648C7.40888 10.1648 5.02123 10.1755 2.63359 10.1627C0.851645 10.1519 0.0251576 9.22987 0.0192959 7.26782C0.0114804 5.26073 0.0661898 3.2515 0.00171169 1.2487C-0.0354121 0.0907713 0.535121 0.0114314 1.34403 0.00285409C2.14707 -0.00357887 2.63359 0.170111 2.58865 1.21868C2.53199 2.52458 2.57302 3.83476 2.57888 5.14494C2.58865 7.5573 2.36786 7.35573 4.54058 7.35788C8.6789 7.36217 12.8192 7.35573 16.9575 7.36217C18.2471 7.36217 18.7961 8.32711 18.3135 9.67374C18.0908 10.2935 17.6081 10.1541 17.2017 10.1562C14.734 10.1734 12.2662 10.1648 9.79848 10.1648H9.79652Z" fill="white"/>
</svg>
