<svg width="45" height="25" viewBox="0 0 45 25" fill="none" xmlns="http://www.w3.org/2000/svg">
<path d="M21.1535 0.0249041C26.9655 0.0249046 32.7774 -0.00144493 38.5894 0.0301756C42.9269 0.056526 44.9388 2.32264 44.953 7.14472C44.9721 12.0775 44.8389 17.0155 44.9958 21.9377C45.0862 24.7835 43.6974 24.9785 41.7284 24.9996C39.7736 25.0154 38.5894 24.5885 38.6988 22.0115C38.8367 18.802 38.7368 15.582 38.7226 12.362C38.6988 6.43326 39.2362 6.92865 33.9474 6.92338C23.874 6.91284 13.7959 6.92865 3.72245 6.91283C0.583425 6.91283 -0.753046 4.54132 0.421709 1.23174C0.963904 -0.2913 2.5021 0.0301744 3.49137 0.0249044C9.49832 -0.0172551 15.1418 0.0249035 21.1488 0.0249041L21.1535 0.0249041Z" fill="white"/>
</svg>
