<svg width="42" height="42" viewBox="0 0 42 42" fill="none" xmlns="http://www.w3.org/2000/svg">
<path d="M40.2505 31.3426C40.2855 32.6551 39.9355 33.8976 39.3055 34.9651C38.9555 35.5951 38.483 36.1726 37.958 36.6451C36.7505 37.7651 35.158 38.4476 33.3905 38.5001C30.8355 38.5526 28.578 37.2401 27.3355 35.2276C26.6705 34.1951 26.268 32.9527 26.2505 31.6402C26.198 29.4352 27.178 27.4401 28.753 26.1276C29.943 25.1476 31.4481 24.5351 33.0931 24.5001C36.9606 24.4126 40.163 27.4751 40.2505 31.3426Z" stroke="white" stroke-width="1.5" stroke-miterlimit="10" stroke-linecap="round" stroke-linejoin="round"/>
<path d="M30.521 31.5526L32.2885 33.2325L35.946 29.6975" stroke="white" stroke-width="1.5" stroke-linecap="round" stroke-linejoin="round"/>
<path d="M5.54736 13.02L20.9998 21.9625L36.3473 13.0725" stroke="white" stroke-width="1.5" stroke-linecap="round" stroke-linejoin="round"/>
<path d="M21 37.8176V21.9451" stroke="white" stroke-width="1.5" stroke-linecap="round" stroke-linejoin="round"/>
<path d="M37.8176 16.0475V25.9526C37.8176 26.0401 37.8176 26.11 37.8001 26.1975C36.5751 25.13 35.0001 24.5 33.2501 24.5C31.6051 24.5 30.0826 25.0775 28.8751 26.04C27.2651 27.3175 26.2501 29.295 26.2501 31.5C26.2501 32.8125 26.6176 34.055 27.2651 35.105C27.4226 35.385 27.6151 35.6476 27.8251 35.8926L24.6226 37.6601C22.6276 38.7801 19.3726 38.7801 17.3776 37.6601L8.03259 32.48C5.91509 31.3075 4.18262 28.3676 4.18262 25.9526V16.0475C4.18262 13.6325 5.91509 10.6925 8.03259 9.52004L17.3776 4.34C19.3726 3.22 22.6276 3.22 24.6226 4.34L33.9676 9.52004C36.0851 10.6925 37.8176 13.6325 37.8176 16.0475Z" stroke="white" stroke-width="1.5" stroke-linecap="round" stroke-linejoin="round"/>
</svg>
