<svg width="146" height="10" viewBox="0 0 146 10" fill="none" xmlns="http://www.w3.org/2000/svg">
<g clip-path="url(#clip0_2264_230)">
<path d="M118.161 6.76239C120.601 6.76239 122.735 6.75652 124.871 6.76434C126.143 6.76825 126.701 7.68462 126.209 8.88821C126.027 9.33174 125.666 9.3083 125.32 9.3083C120.859 9.31416 116.393 9.43139 111.938 9.25945C109.581 9.16762 107.706 7.31729 107.911 4.06212C108.046 1.93043 109.968 0.0820601 112.19 0.0742445C116.293 0.0605673 120.394 0.066429 124.497 0.0742445C125.08 0.0742445 125.765 -0.0234497 125.975 0.748334C126.182 1.51426 125.806 1.95974 125.13 2.3681C122.872 3.73191 120.662 5.17388 118.159 6.76043L118.161 6.76239ZM119.247 2.82922C119.226 2.76279 119.204 2.69636 119.181 2.63188C117.078 2.63188 114.976 2.63969 112.874 2.62602C112.336 2.62211 111.854 2.75888 111.412 3.0461C110.519 3.6264 110.259 4.73035 110.789 5.64672C111.299 6.53183 112.432 7.01248 113.208 6.55332C115.242 5.34777 117.237 4.0758 119.245 2.83117L119.247 2.82922Z" fill="#272520"/>
<path d="M73.6461 0.0722482C75.6761 0.0722482 77.7101 0.128911 79.7363 0.0488016C80.8969 0.00386226 81.3795 0.302806 81.319 1.56306C81.2193 3.66544 81.2662 5.77759 81.3033 7.88387C81.3209 8.80415 81.2037 9.36101 80.0392 9.35319C78.945 9.34538 78.6597 8.93506 78.7183 7.93858C78.7828 6.82878 78.7476 5.71311 78.7242 4.5994C78.7164 4.26919 78.9176 3.81784 78.5171 3.63613C78.2201 3.50131 77.9309 3.80612 77.6691 3.97024C75.2541 5.49037 72.8391 7.01244 70.4339 8.55015C68.3217 9.90028 65.9126 9.60524 64.1834 7.76469C62.6555 6.1371 62.5206 3.47982 64.0076 1.6588C64.7637 0.732661 65.7856 0.0781098 67.0771 0.0742021C69.2674 0.0702943 71.4558 0.0742021 73.6461 0.0742021V0.0722482ZM74.3964 2.8917C74.3807 2.80573 74.3651 2.71781 74.3495 2.63183C72.208 2.63183 70.0665 2.64356 67.9251 2.62597C66.9403 2.61816 66.1568 3.02261 65.8383 3.91749C65.5531 4.72249 65.6586 5.6076 66.3932 6.21721C67.1982 6.88544 68.0501 6.83073 68.9255 6.27973C70.7387 5.13476 72.5714 4.01909 74.3944 2.8917H74.3964Z" fill="#272520"/>
<path d="M24.4115 9.05041C27.6354 6.89137 30.6756 4.85738 34.0031 2.628C31.0801 2.628 28.5029 2.63191 25.9277 2.628C24.5209 2.62605 24.0637 1.96368 24.4623 0.601823C24.6596 -0.0703129 25.193 0.0840439 25.6327 0.08209C29.2591 0.0664589 32.8855 0.0723206 36.5119 0.0723206C38.1453 0.0723206 39.7788 0.0625511 41.4122 0.0801361C41.7854 0.0840439 42.2035 -0.0546818 42.6647 0.425973C39.5814 2.49123 36.5431 4.52717 33.202 6.76437C35.6483 6.76437 37.7741 6.76437 39.8999 6.76437C40.3786 6.76437 40.8554 6.76046 41.3341 6.76437C42.7643 6.77609 42.8503 6.89919 42.7819 8.36851C42.7526 8.99961 42.5533 9.32005 41.8753 9.31809C36.2579 9.30246 30.6385 9.30246 25.0211 9.29074C24.9156 9.29074 24.812 9.21258 24.4095 9.05237L24.4115 9.05041Z" fill="#272520"/>
<path d="M138.263 9.31807C136.112 9.31807 133.958 9.34737 131.807 9.3083C129.697 9.27117 127.78 7.5967 127.548 5.66821C127.21 2.88002 128.349 0.898785 130.649 0.209065C131.084 0.0781545 131.51 0.0762006 131.946 0.0762006C136.09 0.0722929 140.234 0.0898778 144.379 0.0605696C145.334 0.0547079 145.924 0.134817 145.924 1.37553C145.924 2.67487 145.228 2.6397 144.328 2.63579C140.424 2.6182 136.518 2.62406 132.612 2.62993C130.969 2.63188 130.086 3.35872 130.1 4.66587C130.113 5.94176 131.063 6.74871 132.63 6.75457C136.575 6.76825 140.52 6.75457 144.464 6.76239C145.762 6.76434 146.309 7.63187 145.828 8.86477C145.607 9.43335 145.125 9.30439 144.717 9.30634C142.565 9.32197 140.414 9.31416 138.261 9.31416L138.263 9.31807Z" fill="#272520"/>
<path d="M50.0196 9.31807C48.5874 9.31807 47.1532 9.28681 45.723 9.3298C44.8808 9.3552 44.494 9.10315 44.5116 8.18873C44.5565 5.84407 44.5682 3.49746 44.5116 1.15475C44.4823 -0.0566573 45.2462 0.0937916 46.0082 0.0644834C46.8289 0.0332213 47.3838 0.160224 47.3388 1.2036C47.2724 2.71004 47.3525 4.2243 47.3134 5.7327C47.2939 6.5123 47.5987 6.78584 48.3666 6.77021C50.1563 6.73504 51.948 6.77021 53.7378 6.75262C54.7011 6.74286 55.4474 6.4107 56.0121 5.52168C57.0516 3.88628 58.2122 2.32903 59.3337 0.744435C59.7362 0.175855 62.2391 -0.246184 62.7374 0.152408C63.0285 0.38492 62.798 0.564677 62.6729 0.744435C61.0492 3.08519 59.4588 5.45134 57.7765 7.75301C57.0145 8.79443 55.8402 9.2575 54.5545 9.29463C53.0442 9.33761 51.5299 9.3044 50.0196 9.3044V9.31612V9.31807Z" fill="#272520"/>
<path d="M12.5521 9.31999C11.3973 9.31999 10.2328 9.23401 9.08783 9.33757C6.85845 9.53882 5.40476 8.43683 4.23438 6.72132C2.98194 4.89053 1.7002 3.07733 0.432126 1.25631C0.23283 0.969091 -0.120823 0.683824 0.0413495 0.316494C0.217199 -0.0801445 0.6705 0.117198 1.00461 0.0742122C2.28636 -0.0938217 3.24181 0.191445 3.93935 1.48101C4.70527 2.89953 5.81117 4.13047 6.69628 5.49233C7.25509 6.35008 7.9917 6.75258 8.97646 6.75649C10.8092 6.76626 12.6419 6.73109 14.4747 6.77408C15.2992 6.79361 15.6158 6.5103 15.5904 5.67209C15.5435 4.16174 15.6197 2.64748 15.5669 1.13712C15.5317 0.150414 16.073 0.0527195 16.8428 0.0624889C17.5853 0.0703044 18.1675 0.0937511 18.148 1.10782C18.103 3.49546 18.1167 5.88311 18.1441 8.27075C18.1519 9.03472 17.8647 9.34148 17.0948 9.32585C15.5825 9.29263 14.0663 9.31608 12.554 9.31608V9.31999H12.5521Z" fill="#272520"/>
<path d="M95.4376 2.62799C93.2082 2.62799 90.9789 2.58695 88.7534 2.64557C87.753 2.67097 87.5654 2.21376 87.5654 1.3521C87.5654 0.494345 87.7471 0.0469058 88.7495 0.0566752C93.7241 0.0957528 98.6987 0.0605829 103.671 0.0840295C105.238 0.0918451 105.914 0.803058 105.926 2.3603C105.942 4.30832 105.885 6.25635 105.946 8.20241C105.979 9.26142 105.406 9.32394 104.599 9.33371C103.792 9.34153 103.318 9.17545 103.357 8.22195C103.413 6.87377 103.296 5.51387 103.39 4.1696C103.472 2.99141 103.136 2.54201 101.88 2.60258C99.7362 2.70419 97.583 2.62994 95.4337 2.62994L95.4376 2.62799Z" fill="#272520"/>
<path d="M93.0582 9.31808C90.6706 9.31808 88.283 9.32785 85.8953 9.31612C84.1134 9.30635 83.2869 8.46618 83.281 6.67838C83.2732 4.84955 83.3279 3.01876 83.2634 1.19383C83.2263 0.138734 83.7968 0.0664408 84.6057 0.0586253C85.4088 0.0527636 85.8953 0.211028 85.8504 1.16648C85.7937 2.35639 85.8347 3.55021 85.8406 4.74404C85.8504 6.94216 85.6296 6.75849 87.8023 6.76044C91.9406 6.76435 96.0809 6.75849 100.219 6.76435C101.509 6.76435 102.058 7.6436 101.575 8.87064C101.352 9.43531 100.87 9.30831 100.463 9.31026C97.9957 9.32589 95.528 9.31808 93.0602 9.31808H93.0582Z" fill="#272520"/>
<path d="M22.6792 4.7655C22.6792 5.95737 22.6479 7.15119 22.687 8.3411C22.7261 9.51734 21.8976 9.29069 21.2138 9.31609C20.5065 9.34149 19.8578 9.36689 19.8753 8.31961C19.9164 5.8968 19.9125 3.47203 19.8773 1.04726C19.8597 -0.128979 20.6686 0.0976709 21.3525 0.0722704C22.0598 0.04687 22.73 0.0214694 22.6889 1.06875C22.6401 2.2997 22.6772 3.5326 22.6772 4.76354L22.6792 4.7655Z" fill="#272520"/>
</g>
<defs>
<clipPath id="clip0_2264_230">
<rect width="146" height="9.38841" fill="white"/>
</clipPath>
</defs>
</svg>
