<svg width="146" height="10" viewBox="0 0 146 10" fill="none" xmlns="http://www.w3.org/2000/svg">
<g clip-path="url(#clip0_57_17)">
<path d="M118.161 6.76251C120.601 6.76251 122.735 6.75665 124.871 6.76446C126.143 6.76837 126.701 7.68474 126.209 8.88833C126.027 9.33186 125.666 9.30842 125.32 9.30842C120.859 9.31428 116.393 9.43151 111.938 9.25957C109.581 9.16774 107.706 7.31741 107.911 4.06224C108.046 1.93056 109.968 0.0821821 112.19 0.0743666C116.293 0.0606894 120.394 0.0665511 124.497 0.0743666C125.08 0.0743666 125.765 -0.0233276 125.975 0.748456C126.182 1.51438 125.806 1.95986 125.13 2.36823C122.872 3.73204 120.662 5.174 118.159 6.76055L118.161 6.76251ZM119.247 2.82934C119.226 2.76291 119.204 2.69648 119.181 2.632C117.078 2.632 114.976 2.63982 112.874 2.62614C112.336 2.62223 111.854 2.759 111.412 3.04622C110.519 3.62653 110.259 4.73047 110.789 5.64684C111.299 6.53195 112.432 7.01261 113.208 6.55344C115.242 5.3479 117.237 4.07592 119.245 2.8313L119.247 2.82934Z" fill="white"/>
<path d="M73.6456 0.0723702C75.6757 0.0723702 77.7096 0.129033 79.7358 0.0489236C80.8964 0.00398433 81.379 0.302928 81.3185 1.56318C81.2188 3.66556 81.2657 5.77771 81.3028 7.88399C81.3204 8.80427 81.2032 9.36113 80.0387 9.35331C78.9445 9.3455 78.6592 8.93518 78.7179 7.9387C78.7823 6.8289 78.7472 5.71323 78.7237 4.59952C78.7159 4.26931 78.9171 3.81796 78.5166 3.63625C78.2196 3.50144 77.9304 3.80624 77.6686 3.97037C75.2536 5.49049 72.8386 7.01256 70.4334 8.55027C68.3212 9.9004 65.9121 9.60537 64.1829 7.76481C62.655 6.13722 62.5202 3.47994 64.0071 1.65892C64.7632 0.732783 65.7851 0.0782319 67.0766 0.0743241C69.2669 0.0704164 71.4553 0.0743241 73.6456 0.0743241V0.0723702ZM74.3959 2.89182C74.3802 2.80585 74.3646 2.71793 74.349 2.63196C72.2075 2.63196 70.0661 2.64368 67.9246 2.6261C66.9398 2.61828 66.1563 3.02273 65.8379 3.91761C65.5526 4.72261 65.6581 5.60772 66.3928 6.21733C67.1978 6.88556 68.0497 6.83085 68.925 6.27986C70.7382 5.13488 72.5709 4.01921 74.3939 2.89182H74.3959Z" fill="white"/>
<path d="M24.412 9.05041C27.6359 6.89137 30.6761 4.85738 34.0036 2.628C31.0806 2.628 28.5034 2.63191 25.9282 2.628C24.5214 2.62605 24.0642 1.96368 24.4628 0.601823C24.6601 -0.0703129 25.1935 0.0840439 25.6332 0.08209C29.2596 0.0664589 32.886 0.0723206 36.5124 0.0723206C38.1458 0.0723206 39.7793 0.0625511 41.4127 0.0801361C41.7859 0.0840439 42.204 -0.0546818 42.6652 0.425973C39.5819 2.49123 36.5436 4.52717 33.2025 6.76437C35.6488 6.76437 37.7746 6.76437 39.9004 6.76437C40.3791 6.76437 40.8559 6.76046 41.3346 6.76437C42.7648 6.77609 42.8508 6.89919 42.7824 8.36851C42.7531 8.99961 42.5538 9.32005 41.8758 9.31809C36.2584 9.30246 30.639 9.30246 25.0216 9.29074C24.9161 9.29074 24.8125 9.21258 24.41 9.05237L24.412 9.05041Z" fill="white"/>
<path d="M138.263 9.31807C136.112 9.31807 133.958 9.34737 131.807 9.3083C129.697 9.27117 127.78 7.5967 127.548 5.66821C127.21 2.88002 128.349 0.898785 130.649 0.209065C131.084 0.0781545 131.51 0.0762006 131.946 0.0762006C136.09 0.0722929 140.234 0.0898778 144.379 0.0605696C145.334 0.0547079 145.924 0.134817 145.924 1.37553C145.924 2.67487 145.228 2.6397 144.328 2.63579C140.424 2.6182 136.518 2.62406 132.612 2.62993C130.969 2.63188 130.086 3.35872 130.1 4.66587C130.113 5.94176 131.063 6.74871 132.63 6.75457C136.575 6.76825 140.52 6.75457 144.464 6.76239C145.762 6.76434 146.309 7.63187 145.828 8.86477C145.607 9.43335 145.125 9.30439 144.717 9.30634C142.565 9.32197 140.414 9.31416 138.261 9.31416L138.263 9.31807Z" fill="white"/>
<path d="M50.0196 9.31795C48.5874 9.31795 47.1532 9.28669 45.723 9.32967C44.8808 9.35507 44.494 9.10302 44.5116 8.18861C44.5565 5.84395 44.5682 3.49733 44.5116 1.15463C44.4823 -0.0567794 45.2462 0.0936696 46.0082 0.0643613C46.8289 0.0330992 47.3838 0.160102 47.3388 1.20348C47.2724 2.70992 47.3525 4.22418 47.3134 5.73258C47.2939 6.51218 47.5987 6.78572 48.3666 6.77009C50.1563 6.73492 51.948 6.77009 53.7378 6.7525C54.7011 6.74273 55.4474 6.41057 56.0121 5.52156C57.0516 3.88616 58.2122 2.32891 59.3337 0.744313C59.7362 0.175733 62.2391 -0.246306 62.7374 0.152286C63.0285 0.384798 62.798 0.564555 62.6729 0.744313C61.0492 3.08506 59.4588 5.45122 57.7765 7.75289C57.0145 8.79431 55.8402 9.25738 54.5545 9.2945C53.0442 9.33749 51.5299 9.30427 50.0196 9.30427V9.316V9.31795Z" fill="white"/>
<path d="M12.5516 9.31999C11.3968 9.31999 10.2323 9.23401 9.08734 9.33757C6.85796 9.53882 5.40427 8.43683 4.23389 6.72132C2.98146 4.89053 1.69971 3.07733 0.431638 1.25631C0.232342 0.969091 -0.121311 0.683824 0.0408613 0.316494C0.216711 -0.0801445 0.670012 0.117198 1.00413 0.0742122C2.28587 -0.0938217 3.24132 0.191445 3.93886 1.48101C4.70478 2.89953 5.81068 4.13047 6.69579 5.49233C7.2546 6.35008 7.99121 6.75258 8.97597 6.75649C10.8087 6.76626 12.6415 6.73109 14.4742 6.77408C15.2987 6.79361 15.6153 6.5103 15.5899 5.67209C15.543 4.16174 15.6192 2.64748 15.5664 1.13712C15.5312 0.150414 16.0725 0.0527195 16.8423 0.0624889C17.5848 0.0703044 18.167 0.0937511 18.1475 1.10782C18.1026 3.49546 18.1162 5.88311 18.1436 8.27075C18.1514 9.03472 17.8642 9.34148 17.0944 9.32585C15.582 9.29263 14.0658 9.31608 12.5535 9.31608V9.31999H12.5516Z" fill="white"/>
<path d="M95.4376 2.62811C93.2082 2.62811 90.9789 2.58708 88.7534 2.64569C87.753 2.67109 87.5654 2.21388 87.5654 1.35222C87.5654 0.494467 87.7471 0.0470278 88.7495 0.0567972C93.7241 0.0958749 98.6987 0.060705 103.671 0.0841516C105.238 0.0919671 105.914 0.80318 105.926 2.36042C105.942 4.30845 105.885 6.25647 105.946 8.20253C105.979 9.26154 105.406 9.32406 104.599 9.33383C103.792 9.34165 103.318 9.17557 103.357 8.22207C103.413 6.87389 103.296 5.51399 103.39 4.16972C103.472 2.99153 103.136 2.54214 101.88 2.60271C99.7362 2.70431 97.583 2.63006 95.4337 2.63006L95.4376 2.62811Z" fill="white"/>
<path d="M93.0578 9.3182C90.6701 9.3182 88.2825 9.32797 85.8948 9.31625C84.1129 9.30648 83.2864 8.46631 83.2805 6.6785C83.2727 4.84967 83.3274 3.01888 83.2629 1.19395C83.2258 0.138857 83.7964 0.0665629 84.6053 0.0587473C85.4083 0.0528857 85.8948 0.21115 85.8499 1.1666C85.7932 2.35651 85.8342 3.55034 85.8401 4.74416C85.8499 6.94228 85.6291 6.75861 87.8018 6.76057C91.9401 6.76447 96.0804 6.75861 100.219 6.76447C101.508 6.76447 102.057 7.64372 101.575 8.87076C101.352 9.43543 100.869 9.30843 100.463 9.31038C97.9952 9.32601 95.5275 9.3182 93.0597 9.3182H93.0578Z" fill="white"/>
<path d="M22.6787 4.7655C22.6787 5.95737 22.6474 7.15119 22.6865 8.3411C22.7256 9.51734 21.8971 9.29069 21.2133 9.31609C20.506 9.34149 19.8573 9.36689 19.8749 8.31961C19.9159 5.8968 19.912 3.47203 19.8768 1.04726C19.8592 -0.128979 20.6681 0.0976709 21.352 0.0722704C22.0593 0.04687 22.7295 0.0214694 22.6885 1.06875C22.6396 2.2997 22.6767 3.5326 22.6767 4.76354L22.6787 4.7655Z" fill="white"/>
</g>
<defs>
<clipPath id="clip0_57_17">
<rect width="146" height="9.38841" fill="white"/>
</clipPath>
</defs>
</svg>
