<svg width="361" height="683" viewBox="0 0 361 683" fill="none" xmlns="http://www.w3.org/2000/svg">
<g style="mix-blend-mode:luminosity" opacity="0.6">
<rect x="0.5" y="0.5" width="360" height="682" rx="7.5" stroke="white"/>
</g>
<path d="M337.154 0.0249041C342.965 0.0249046 348.777 -0.00144493 354.589 0.0301756C358.927 0.056526 360.939 2.32264 360.953 7.14472C360.972 12.0775 360.839 17.0155 360.996 21.9377C361.086 24.7835 359.697 24.9785 357.728 24.9996C355.774 25.0154 354.589 24.5885 354.699 22.0115C354.837 18.802 354.737 15.582 354.723 12.362C354.699 6.43326 355.236 6.92865 349.947 6.92338C339.874 6.91284 329.796 6.92865 319.722 6.91283C316.583 6.91283 315.247 4.54132 316.422 1.23174C316.964 -0.2913 318.502 0.0301744 319.491 0.0249044C325.498 -0.0172551 331.142 0.0249035 337.149 0.0249041L337.154 0.0249041Z" fill="white"/>
<path d="M23.8465 682.817C18.0345 682.817 12.2226 682.844 6.41061 682.812C2.07305 682.786 0.061238 680.534 0.0469697 675.743C0.0279453 670.841 0.161118 665.934 0.00416655 661.043C-0.0861993 658.215 1.30258 658.021 3.2716 658C5.22636 657.985 6.41062 658.409 6.30123 660.97C6.16331 664.159 6.26318 667.358 6.27744 670.558C6.30122 676.449 5.76379 675.957 11.0526 675.962C21.126 675.973 31.2041 675.957 41.2775 675.973C44.4166 675.973 45.753 678.329 44.5783 681.618C44.0361 683.132 42.8613 682.791 41.8721 682.796C35.8651 682.838 29.8582 682.817 23.8512 682.817H23.8465Z" fill="white"/>
</svg>
